<?xml version="1.0" encoding="UTF-8" standalone="no"?>
<!DOCTYPE svg PUBLIC "-//W3C//DTD SVG 1.1//EN" "http://www.w3.org/Graphics/SVG/1.1/DTD/svg11.dtd">
<svg version="1.1" xmlns="http://www.w3.org/2000/svg" xmlns:xlink="http://www.w3.org/1999/xlink" preserveAspectRatio="xMidYMid meet" viewBox="0 0 1200 800" width="1200" height="800"><defs><path d="M236.26 693.37L261.26 213.05L434.71 168.02L602.43 213.05L750.88 168.02L943.6 213.05L968.6 693.37L775.68 633.33L602.43 693.37L409.71 648.34L236.26 693.37Z" id="l1gj4he2b7"></path><mask id="maskc1uAxMzcgs" x="226.26" y="158.02" width="752.34" height="545.35" maskUnits="userSpaceOnUse"><rect x="226.26" y="158.02" width="752.34" height="545.35" fill="white"></rect><use xlink:href="#l1gj4he2b7" opacity="1" fill="black"></use></mask><path d="M603.41 394.72C605.12 394.72 606.51 397 606.51 399.81C606.51 399.81 606.51 643.97 606.51 643.97C606.51 646.77 605.12 649.05 603.41 649.05C603.41 649.05 603.41 649.05 603.41 649.05C601.7 649.05 600.31 646.77 600.31 643.97C600.31 643.97 600.31 399.81 600.31 399.81C600.31 397 601.7 394.72 603.41 394.72C603.41 394.72 603.41 394.72 603.41 394.72Z" id="a2OWGyMdHu"></path><path d="M602.84 693.8L602.53 213.24L750.16 168.02L763.18 636.61L602.84 693.8Z" id="b9dM5ioRW"></path><linearGradient id="gradienta36kiLilwp" gradientUnits="userSpaceOnUse" x1="624.18" y1="198.74" x2="688.61" y2="585.95"><stop style="stop-color: #ffffff;stop-opacity: 1" offset="0%"></stop><stop style="stop-color: #e8eff0;stop-opacity: 1" offset="100%"></stop></linearGradient><path d="M236.26 693.37L261.26 213.05L434.71 168.02L409.71 648.34L236.26 693.37Z" id="adVP7TrE0"></path><linearGradient id="gradienta1hqe7ZfD" gradientUnits="userSpaceOnUse" x1="257.9" y1="198.74" x2="322.34" y2="585.95"><stop style="stop-color: #ffffff;stop-opacity: 1" offset="0%"></stop><stop style="stop-color: #e8eff0;stop-opacity: 1" offset="100%"></stop></linearGradient><path d="M428.08 213.52C429.78 213.59 431.06 215.91 430.95 218.7C430.95 218.7 425.19 353.83 425.19 353.83C425.08 356.61 423.6 358.82 421.9 358.75C421.9 358.75 421.9 358.75 421.9 358.75C420.2 358.67 418.92 356.35 419.04 353.56C419.04 353.56 424.79 218.44 424.79 218.44C424.91 215.65 426.38 213.45 428.08 213.52C428.08 213.52 428.08 213.52 428.08 213.52Z" id="aH4z9o4bk"></path><path d="M603.46 209.72C605.16 209.72 606.54 211.98 606.54 214.77C606.54 214.77 606.54 350.02 606.54 350.02C606.54 352.81 605.16 355.07 603.46 355.07C603.46 355.07 603.46 355.07 603.46 355.07C601.76 355.07 600.38 352.81 600.38 350.02C600.38 350.02 600.38 214.77 600.38 214.77C600.38 211.98 601.76 209.72 603.46 209.72C603.46 209.72 603.46 209.72 603.46 209.72Z" id="c3TTac5rHG"></path><path d="M752.48 300.83C754.18 300.75 755.66 302.96 755.78 305.75C755.78 305.75 761.74 440.86 761.74 440.86C761.86 443.65 760.58 445.97 758.88 446.05C758.88 446.05 758.88 446.05 758.88 446.05C757.19 446.12 755.71 443.92 755.58 441.13C755.58 441.13 749.63 306.02 749.63 306.02C749.51 303.23 750.78 300.9 752.48 300.83C752.48 300.83 752.48 300.83 752.48 300.83Z" id="d37IFXRkW"></path><path d="M420.16 398.35C421.87 398.43 423.16 400.76 423.04 403.57C423.04 403.57 412.66 647.51 412.66 647.51C412.54 650.31 411.06 652.52 409.35 652.45C409.35 652.45 409.35 652.45 409.35 652.45C407.64 652.38 406.35 650.04 406.47 647.24C406.47 647.24 416.85 403.3 416.85 403.3C416.97 400.5 418.45 398.28 420.16 398.35C420.16 398.35 420.16 398.35 420.16 398.35Z" id="f1F0JxCFZ3"></path><path d="M601.58 418.85L756.25 370.25L753.25 291.85L603.25 245.25L601.58 418.85Z" id="b125898KIq"></path><path d="M755.16 370.25L861.83 328.51L752.16 292.18L755.16 370.25Z" id="bIQlbFjHR"></path><path d="" id="a2QcTwHZEs"></path><path d="M423.88 359.64L425.72 302.13L606.15 246.18L602.92 418.95L423.88 359.64Z" id="b6m7HSgJFB"></path><path d="M342.46 331.85L423.25 358.05L425.76 301.39L342.46 331.85Z" id="d3BxOjgHB"></path><path d="M596.74 496.58L693.75 480.69L658.42 564.8C654.69 554.83 630.08 549.9 584.59 550C539.11 550.1 500.5 534.16 468.75 502.19L468.75 418.07" id="d2ANLptWg"></path><path d="M600 431.48L759.38 379.14L764.03 456.71C723.53 494.09 668.86 512.52 600 512C531.14 511.48 486.13 493.98 464.97 459.51L466.84 381.01L600 431.48Z" id="a1jL3EYNNc"></path><path d="" id="k1h3cT7vwq"></path><path d="M463.15 499.62C463.15 513.42 449.97 524.62 433.74 524.62C417.5 524.62 404.32 513.42 404.32 499.62C404.32 485.82 417.5 474.62 433.74 474.62C449.97 474.62 463.15 485.82 463.15 499.62Z" id="amhmpsgV5"></path><path d="M475.41 373.09C463.65 377.99 453.84 400.29 446 440C447.96 456.18 447.47 475.54 444.53 498.09C441.59 520.64 450.41 554.95 471 601.03L433.5 602.5C415.36 610.34 405.8 612.3 404.82 608.38C403.84 604.46 407.15 590 414.75 565C415.98 516.47 418.06 477.01 421 446.62C423.94 416.23 434.36 389.02 452.25 365" id="biPTxCdJw"></path></defs><g><g><g><use xlink:href="#l1gj4he2b7" opacity="1" fill="#ffffff" fill-opacity="1"></use><g mask="url(#maskc1uAxMzcgs)"><use xlink:href="#l1gj4he2b7" opacity="1" fill-opacity="0" stroke="#415a68" stroke-width="10" stroke-opacity="1"></use></g></g><g><use xlink:href="#a2OWGyMdHu" opacity="1" fill="#415a68" fill-opacity="1"></use></g><g><use xlink:href="#b9dM5ioRW" opacity="1" fill="url(#gradienta36kiLilwp)"></use></g><g><use xlink:href="#adVP7TrE0" opacity="1" fill="url(#gradienta1hqe7ZfD)"></use></g><g><use xlink:href="#aH4z9o4bk" opacity="1" fill="#415a68" fill-opacity="1"></use></g><g><use xlink:href="#c3TTac5rHG" opacity="1" fill="#415a68" fill-opacity="1"></use></g><g><use xlink:href="#d37IFXRkW" opacity="1" fill="#415a68" fill-opacity="1"></use></g><g><use xlink:href="#f1F0JxCFZ3" opacity="1" fill="#415a68" fill-opacity="1"></use></g><g><use xlink:href="#b125898KIq" opacity="1" fill="#1024a7" fill-opacity="1"></use><g><use xlink:href="#b125898KIq" opacity="1" fill-opacity="0" stroke="#000000" stroke-width="0" stroke-opacity="1"></use></g></g><g><use xlink:href="#bIQlbFjHR" opacity="1" fill="#1329bc" fill-opacity="1"></use><g><use xlink:href="#bIQlbFjHR" opacity="1" fill-opacity="0" stroke="#000000" stroke-width="0" stroke-opacity="1"></use></g></g><g><g><use xlink:href="#a2QcTwHZEs" opacity="1" fill-opacity="0" stroke="#000000" stroke-width="1" stroke-opacity="1"></use></g></g><g><use xlink:href="#b6m7HSgJFB" opacity="1" fill="#132389" fill-opacity="1"></use><g><use xlink:href="#b6m7HSgJFB" opacity="1" fill-opacity="0" stroke="#000000" stroke-width="0" stroke-opacity="1"></use></g></g><g><use xlink:href="#d3BxOjgHB" opacity="1" fill="#0a1981" fill-opacity="1"></use><g><use xlink:href="#d3BxOjgHB" opacity="1" fill-opacity="0" stroke="#000000" stroke-width="0" stroke-opacity="1"></use></g></g><g><g><use xlink:href="#d2ANLptWg" opacity="1" fill-opacity="0" stroke="#000000" stroke-width="0" stroke-opacity="1"></use></g></g><g><use xlink:href="#a1jL3EYNNc" opacity="1" fill="#0a1877" fill-opacity="1"></use><g><use xlink:href="#a1jL3EYNNc" opacity="1" fill-opacity="0" stroke="#000000" stroke-width="0" stroke-opacity="1"></use></g></g><g><g><use xlink:href="#k1h3cT7vwq" opacity="1" fill-opacity="0" stroke="#000000" stroke-width="0" stroke-opacity="1"></use></g></g><g><use xlink:href="#amhmpsgV5" opacity="1" fill="#01154b" fill-opacity="1"></use><g><use xlink:href="#amhmpsgV5" opacity="1" fill-opacity="0" stroke="#92673b" stroke-width="0" stroke-opacity="1"></use></g></g><g><use xlink:href="#biPTxCdJw" opacity="1" fill="#01154b" fill-opacity="1"></use><g><use xlink:href="#biPTxCdJw" opacity="1" fill-opacity="0" stroke="#000000" stroke-width="0" stroke-opacity="1"></use></g></g></g></g></svg>